# xmcd
#
# Track frame offsets: 
#        182
#        16035
#        43827
#        62090
#        83520
#        102552
#        121305
#        150630
#        168560
#        184652
#        208670
#        227677
#        242145
#        263590
#        283355
#        304972
#
# Disc length: 4339 seconds
#
# Revision: 3
# Processed by: cddbd v1.5.2PL0 Copyright (c) Steve Scherf et al.
# Submitted via: ExactAudioCopy v0.99pb5
#
DISCID=da10f110
DTITLE=Stacy Lattisaw - The Very Best Of Stacy Lattisaw
DYEAR=1998
DGENRE=R&B
TTITLE0=When You're Young And In Love (Disco Version)
TTITLE1=Dynamite!
TTITLE2=Let Me Be Your Angel
TTITLE3=My Love
TTITLE4=Love On A Two Way Street
TTITLE5=Don't Throw It All Away
TTITLE6=Attack Of The Name Game
TTITLE7=Hey There Lonely Boy
TTITLE8=Miracles
TTITLE9=Million Dollar Babe
TTITLE10=Perfect Combination
TTITLE11=Baby It's You
TTITLE12=Nail It To The Wall
TTITLE13=Jump Into My Life
TTITLE14=Every Drop Of Your Love
TTITLE15=Let Me Take You Down
EXTD=\n YEAR: 1998
EXTT0=
EXTT1=
EXTT2=
EXTT3=
EXTT4=
EXTT5=
EXTT6=
EXTT7=
EXTT8=
EXTT9=
EXTT10=
EXTT11=
EXTT12=
EXTT13=
EXTT14=
EXTT15=
PLAYORDER=
